<svg xmlns="http://www.w3.org/2000/svg" viewBox="0 0 64 64">
  <rect width="64" height="64" rx="12" fill="#1e3a5f"/>
  <g fill="none" stroke="#e8a838" stroke-width="2.5" stroke-linecap="round" stroke-linejoin="round">
    <!-- Book spine -->
    <path d="M16 14v36c0 2 2 4 4 4h24c2 0 4-2 4-4V14c0-2-2-4-4-4H20c-2 0-4 2-4 4z"/>
    <!-- Pages -->
    <path d="M22 10v44"/>
    <!-- Lines on page -->
    <line x1="28" y1="20" x2="40" y2="20"/>
    <line x1="28" y1="26" x2="40" y2="26"/>
    <line x1="28" y1="32" x2="38" y2="32"/>
    <!-- Card sticking out -->
    <rect x="30" y="38" width="14" height="10" rx="1.5" fill="#e8a838" opacity="0.3"/>
    <line x1="33" y1="42" x2="41" y2="42"/>
    <line x1="33" y1="45" x2="38" y2="45"/>
  </g>
</svg>
